<?xml version="1.0" standalone="no"?>
<!DOCTYPE svg PUBLIC "-//W3C//DTD SVG 20010904//EN"
 "http://www.w3.org/TR/2001/REC-SVG-20010904/DTD/svg10.dtd">
<svg version="1.0" xmlns="http://www.w3.org/2000/svg"
 width="96.000000pt" height="96.000000pt" viewBox="0 0 96.000000 96.000000"
 preserveAspectRatio="xMidYMid meet">

<g transform="translate(0.000000,96.000000) scale(0.100000,-0.100000)"
fill="rgb(114, 125, 189)" stroke="none">
<path d="M410 831 c-46 -15 -105 -49 -133 -79 -17 -17 -44 -33 -65 -37 -75
-14 -147 -68 -185 -140 -16 -30 -22 -58 -22 -115 0 -64 4 -82 27 -122 61 -102
139 -138 305 -138 l103 0 0 120 0 120 -50 0 c-34 0 -50 4 -50 13 0 7 32 44 70
82 l70 69 70 -69 c39 -38 70 -75 70 -82 0 -9 -16 -13 -50 -13 l-50 0 0 -120 0
-120 121 0 c142 0 184 10 240 59 81 68 100 165 53 260 -29 58 -91 106 -150
117 -27 5 -37 15 -54 50 -54 111 -205 180 -320 145z"/>
</g>
</svg>
